<?xml version="1.0" encoding="utf-8"?>
<!-- Generator: Adobe Illustrator 24.3.0, SVG Export Plug-In . SVG Version: 6.00 Build 0)  -->
<svg version="1.1" id="Warstwa_1" xmlns="http://www.w3.org/2000/svg" xmlns:xlink="http://www.w3.org/1999/xlink" x="0px" y="0px"
	 viewBox="0 0 178 75" style="enable-background:new 0 0 178 75;" xml:space="preserve">
<style type="text/css">
	.st0{fill:#E40028;}
	.st1{fill:#003763;}
</style>
<path class="st0" d="M55.2,69.5v-1.1c-0.4,0.4-0.9,0.8-1.4,1c-0.5,0.2-1.1,0.3-1.7,0.3c-1.3,0-2.6-0.5-3.5-1.4
	c-0.9-0.9-1.4-2.2-1.4-3.5c0-0.6,0.1-1.3,0.4-1.9c0.5-1.2,1.4-2.1,2.5-2.6c0.6-0.2,1.3-0.3,1.9-0.3c1.2,0,2.4,0.5,3.2,1.4v-4.1h1.7
	v12.3L55.2,69.5z M49,64.8c0,0.9,0.3,1.7,0.9,2.4c0.6,0.6,1.4,1,2.3,1c0.8,0,1.6-0.3,2.2-1c0.6-0.6,0.9-1.4,0.9-2.2
	c0-0.9-0.3-1.7-0.9-2.3c-0.6-0.6-1.4-1-2.2-1C50.4,61.6,48.9,63,49,64.8L49,64.8L49,64.8z"/>
<path class="st0" d="M58.8,69.5V57.2h1.7v12.3H58.8z"/>
<path class="st0" d="M70,69.5v-1.1c-0.4,0.4-0.9,0.8-1.4,1c-0.5,0.2-1.1,0.3-1.7,0.3c-1.3,0-2.6-0.5-3.5-1.4
	c-0.9-0.9-1.4-2.2-1.4-3.5c0-0.6,0.1-1.3,0.3-1.9c0.2-0.6,0.6-1.1,1-1.5c0.4-0.5,1-0.8,1.5-1.1c0.6-0.2,1.2-0.4,1.9-0.4
	c0.6,0,1.2,0.1,1.8,0.3c0.6,0.2,1,0.6,1.5,1v-1.1h1.7v9.3H70z M63.8,64.8c0,0.9,0.3,1.7,0.9,2.4c0.6,0.6,1.4,1,2.3,1
	c0.8,0,1.6-0.3,2.2-1c0.6-0.6,0.9-1.4,0.9-2.2c0-0.9-0.3-1.7-0.9-2.3c-0.6-0.6-1.4-1-2.2-1C65.2,61.6,63.8,63,63.8,64.8
	C63.8,64.7,63.8,64.8,63.8,64.8L63.8,64.8z"/>
<path class="st0" d="M89.8,66.4c-0.5,1-1.3,1.9-2.2,2.5c-1,0.6-2.1,0.9-3.3,0.9c-0.9,0-1.7-0.2-2.5-0.5c-0.8-0.4-1.5-0.9-2.1-1.6
	c-0.5-0.6-0.9-1.3-1.2-2c-0.3-0.8-0.4-1.6-0.4-2.4c0-0.8,0.2-1.7,0.5-2.4c0.3-0.8,0.8-1.5,1.4-2.1c0.6-0.6,1.3-1,2-1.3
	c0.7-0.3,1.5-0.5,2.4-0.5c1.2,0,2.3,0.3,3.3,0.9c1,0.6,1.7,1.5,2.1,2.5h-2.1c-0.4-0.5-0.9-1-1.5-1.2c-0.6-0.3-1.3-0.4-2-0.4
	c-0.6,0-1.1,0.1-1.6,0.3c-0.5,0.2-1,0.5-1.4,1c-0.4,0.4-0.8,0.9-1,1.5c-0.2,0.6-0.4,1.2-0.4,1.8c0,0.6,0.1,1.2,0.3,1.8
	c0.2,0.5,0.5,1.1,0.9,1.5c0.4,0.4,0.9,0.8,1.5,1c0.5,0.2,1.1,0.4,1.7,0.4c0.7,0,1.3-0.1,1.9-0.4c0.6-0.3,1-0.7,1.4-1.2L89.8,66.4z"
	/>
<path class="st0" d="M93.2,59.1h-1.6v-1.9h1.6V59.1z M91.5,69.5v-9.3h1.6v9.3L91.5,69.5z"/>
<path class="st0" d="M96.4,65.5c0.1,0.7,0.5,1.4,1,1.9c1,0.8,2.4,1,3.5,0.3c0.5-0.3,0.8-0.7,1.1-1.1h1.9c-0.4,0.9-1,1.8-1.8,2.4
	c-0.8,0.6-1.7,0.8-2.7,0.8c-0.6,0-1.3-0.1-1.9-0.4c-0.6-0.3-1.1-0.6-1.5-1.1c-0.4-0.5-0.8-1-1-1.6c-0.2-0.6-0.4-1.2-0.4-1.9
	c0-0.6,0.1-1.2,0.3-1.8c0.5-1.2,1.4-2.2,2.5-2.7c1.3-0.6,2.9-0.5,4.2,0.2c0.7,0.4,1.3,0.9,1.7,1.6c0.3,0.4,0.5,0.9,0.6,1.4
	c0.1,0.6,0.2,1.1,0.2,1.7v0.3H96.4z M102.4,64c-0.2-0.7-0.5-1.3-1.1-1.8c-0.5-0.4-1.2-0.6-1.8-0.6c-0.7,0-1.4,0.2-1.9,0.6
	c-0.5,0.5-0.9,1.1-1.1,1.8L102.4,64z"/>
<path class="st0" d="M107.3,68.3v1.1h-1.7V57.2h1.7v4.1c0.8-0.9,2-1.4,3.2-1.4c0.6,0,1.3,0.1,1.9,0.4c1.2,0.5,2.1,1.5,2.6,2.7
	c0.2,0.6,0.3,1.2,0.3,1.9c0,1.3-0.5,2.6-1.4,3.5c-0.9,0.9-2.2,1.4-3.5,1.4c-0.6,0-1.2-0.1-1.7-0.3C108.2,69.1,107.7,68.8,107.3,68.3
	z M107.3,64.9c0,0.8,0.3,1.7,0.9,2.2c0.6,0.6,1.3,0.9,2.2,1c0.9,0,1.7-0.3,2.3-1c0.6-0.6,1-1.5,0.9-2.4c0-1.8-1.4-3.2-3.2-3.2h0
	c-0.8,0-1.7,0.4-2.2,1C107.6,63.2,107.2,64,107.3,64.9z"/>
<path class="st0" d="M118.5,59.1h-1.6v-1.9h1.6V59.1z M116.8,69.5v-9.3h1.6v9.3L116.8,69.5z"/>
<path class="st0" d="M121.7,65.5c0.1,0.7,0.5,1.4,1,1.9c0.6,0.5,1.3,0.7,2,0.7c1.1,0,2.1-0.6,2.6-1.5h1.9c-0.4,0.9-1,1.8-1.8,2.4
	c-0.8,0.6-1.7,0.8-2.7,0.8c-0.6,0-1.3-0.1-1.9-0.4c-0.6-0.3-1.1-0.6-1.5-1.1c-0.4-0.5-0.8-1-1-1.6c-0.2-0.6-0.4-1.2-0.4-1.9
	c0-0.6,0.1-1.2,0.3-1.8c0.2-0.6,0.6-1.1,1-1.5c0.4-0.5,1-0.9,1.6-1.1c0.6-0.3,1.2-0.4,1.9-0.4c0.8,0,1.6,0.2,2.3,0.6
	c0.7,0.4,1.3,0.9,1.7,1.6c0.3,0.4,0.5,0.9,0.6,1.4c0.1,0.6,0.2,1.1,0.2,1.7v0.3L121.7,65.5z M127.7,64c-0.2-0.7-0.5-1.3-1.1-1.8
	c-0.5-0.4-1.2-0.6-1.8-0.6c-0.7,0-1.4,0.2-1.9,0.6c-0.6,0.5-0.9,1.1-1.1,1.8L127.7,64z"/>
<path class="st1" d="M4.6,37.4c0-2,0.4-4,1.2-5.9c0.8-1.9,2-3.6,3.5-5c2.8-2.8,6.5-4.3,10.5-4.3c2,0,3.9,0.4,5.8,1.1
	c1.8,0.7,3.5,1.9,4.9,3.3c1.5,1.4,2.6,3.1,3.4,5c0.8,1.9,1.2,3.9,1.1,5.9c0,2-0.3,4-1,5.8C33.2,45,32.3,46.6,31,48
	c-1.4,1.6-3.2,2.9-5.1,3.8c-1.9,0.8-4,1.3-6.2,1.3c-2.1,0-4.2-0.4-6.2-1.3c-1.9-0.9-3.7-2.2-5.1-3.8c-1.3-1.4-2.2-3-2.9-4.8
	C4.9,41.3,4.6,39.4,4.6,37.4z M9.1,37.4c0,1.5,0.3,3,0.8,4.4c0.5,1.3,1.2,2.5,2.2,3.6c1,1,2.2,1.9,3.5,2.5c1.3,0.6,2.7,0.9,4.1,0.9
	c2.9,0.1,5.7-1.1,7.7-3.3c2.1-2.2,3.2-5.1,3.1-8.1c0-1.3-0.2-2.7-0.8-3.9c-0.5-1.3-1.2-2.4-2.2-3.4c-1-1.1-2.2-2-3.6-2.7
	c-2.6-1.1-5.6-1.1-8.3-0.1c-1.3,0.5-2.4,1.3-3.4,2.3c-1,1.1-1.8,2.3-2.4,3.6C9.4,34.5,9.1,36,9.1,37.4L9.1,37.4z"/>
<path class="st1" d="M46.9,52.4h-8.3V22.8h9.6c7.8-0.4,14.5,5.6,14.9,13.4c0,0.5,0,1,0,1.6c0,2.4-0.5,4.8-1.5,6.9
	c-1,2.1-2.5,3.9-4.4,5.2c-1.3,0.9-2.7,1.6-4.2,2C50.9,52.3,48.9,52.5,46.9,52.4z M42.8,48.4H48c5.5,0.4,10.3-3.6,10.7-9.1
	c0-0.5,0-1.1,0-1.6c0.2-3-1-5.9-3.1-8c-2-1.9-4.9-2.9-8.5-2.9h-4.4L42.8,48.4z"/>
<path class="st1" d="M71.3,52.4H67V22.8h4.4L86,45.2l-0.2-22.5H90v29.7h-4.1L71,29.3L71.3,52.4z"/>
<path class="st1" d="M93.8,37.4c0-2,0.4-4,1.2-5.9c0.8-1.9,2-3.6,3.5-5c2.8-2.8,6.5-4.3,10.5-4.3c6.1,0,11.6,3.7,14,9.3
	c0.8,1.9,1.2,3.9,1.1,5.9c0,2-0.3,4-1,5.8c-0.7,1.8-1.6,3.4-2.9,4.8c-1.4,1.6-3.2,2.9-5.1,3.8c-1.9,0.9-4,1.3-6.2,1.3
	c-2.1,0-4.2-0.4-6.2-1.3c-1.9-0.9-3.7-2.2-5.1-3.8c-1.3-1.4-2.2-3-2.9-4.8C94.1,41.3,93.8,39.4,93.8,37.4z M98.3,37.4
	c0,1.5,0.3,3,0.8,4.4c0.5,1.3,1.2,2.6,2.2,3.6c1,1,2.2,1.9,3.5,2.5c1.3,0.6,2.7,0.9,4.1,0.9c2.9,0.1,5.7-1.1,7.7-3.3
	c2.1-2.2,3.2-5.1,3.1-8.1c0-1.3-0.2-2.7-0.7-3.9c-1.1-2.7-3.2-4.9-5.8-6.1c-1.3-0.6-2.8-0.9-4.3-0.9c-2.8,0-5.4,1.1-7.4,3.1
	c-1,1.1-1.8,2.3-2.4,3.6C98.6,34.5,98.3,36,98.3,37.4L98.3,37.4z"/>
<path class="st1" d="M153.9,43.8l-3.3,8.6H146l11.6-29.7h4.2l11.6,29.7h-4.7l-3.3-8.6H153.9z M163.9,39.6l-4.2-11.3l-4.3,11.3H163.9
	z"/>
<path class="st0" d="M155.6,13.2c-3.9,2.6-7.3,5.8-10.2,9.5c-2.9,3.7-5.3,7.7-7.1,12c-0.9,2.2-1.7,4.4-2.3,6.6
	c-0.1,0.3-0.1,0.6-0.2,0.9c-2-3.9-4-7.7-6.1-11.5c-1.5-2.8-3.1-5.6-4.6-8.3c-0.8-1.4-1.6-2.8-2.4-4.1s-1.6-2.8-2.5-4.1
	c0.5,1.5,1.1,3,1.6,4.5s1.1,3,1.7,4.5c1.2,3,2.4,5.9,3.6,8.9c2.5,5.9,5,11.7,7.6,17.5l2.9,6.3l1.1-6.9c0.1-0.4,0.2-1,0.3-1.5
	s0.2-1,0.4-1.6c0.3-1,0.5-2.1,0.9-3.1c0.6-2.1,1.3-4.1,2.2-6.1c1.6-4,3.7-7.8,6.2-11.4c2.5-3.6,5.4-6.9,8.6-9.8
	c1.6-1.5,3.4-2.9,5.2-4.1c1.8-1.3,3.7-2.5,5.7-3.6C163.6,8.6,159.4,10.6,155.6,13.2z"/>
</svg>
